<svg width="64" height="64" viewBox="0 0 64 64" xmlns="http://www.w3.org/2000/svg">
  <circle fill="#FFE121" cx="32" cy="32" r="32"/>
  <path d="M33.434 27.2178c5.8532.1372 10.5266 4.9215 10.5266 10.7763 0 5.8547-4.6734 10.639-10.5265 10.7763V27.2178zm-7.9525 11.3955c2.8048 0 5.0785 2.2738 5.0785 5.0786 0 2.8047-2.2737 5.0785-5.0785 5.0785s-5.0785-2.2738-5.0785-5.0785c0-2.8048 2.2737-5.0786 5.0785-5.0786zM30.56 15.2296v21.5526c-5.8531-.1372-10.5265-4.9215-10.5265-10.7763 0-5.8547 4.6734-10.639 10.5265-10.7763zm7.9585 0c2.8048 0 5.0785 2.2738 5.0785 5.0785 0 2.8048-2.2737 5.0786-5.0785 5.0786S33.44 23.1129 33.44 20.308c0-2.8047 2.2737-5.0785 5.0785-5.0785z"/>
</svg>
